<svg xmlns="http://www.w3.org/2000/svg" width="160.71" height="40.835" viewBox="0 0 160.71 40.835"><defs><style>.a{fill:#fbc400;}.a,.b,.c,.d{fill-rule:evenodd;}.b{fill:#6396d0;}.c{fill:#cf9c0a;}.d{fill:#4270ab;}.e{fill:#fff;}</style></defs><g transform="translate(-2.1 -2.75)"><path class="a" d="M2.1,18.47v3.842c1.45-1.68,1.941-7.692,9.882-11.644,5.26-2.607,3.617-.89,4.507.395,1-1.248,2.951-3.02,3.777-4.443-.877-1.9-2.956-2.566-3.309-3.869a1.248,1.248,0,0,0-.252.275c-2.052,2.433-.129.945-4.484,2.914C3.743,9.786,3.243,16.588,2.1,18.47Z"/><path class="b" d="M61.037,43.858l-.5-.248c.95,4.833-2.657,8.721-4.861,10.832a15.518,15.518,0,0,1-4.544,3.116,21.722,21.722,0,0,1-2.914,1.088c-1.836.069-.317.216-.918-.386l-.688-1.2c-1.262,2.024-2.566,2.7-3.791,4.553,1.2,1.863,2.731,2.713,4.255,3.832.918-2.451-1-1.207,1.795-2.465,1.212-.546,1.987-.643,3.213-1.317C62.363,56.08,60.408,47.768,61.037,43.858Z" transform="translate(-22.031 -22.106)"/><path class="c" d="M2.1,52.438l.491,1.042c3.644,9.079,6.742,11.745,18.088,13.375l-.17-4.636c-6.981-.5-12.576-3.208-15.853-8.537-.982-1.6-1.487-3.906-2.556-5.012v3.773Z" transform="translate(0 -24.844)"/><path class="d" d="M60.25,23.207l.5.248c-.124-10.166-7.628-17.661-18-17.556-.459,1.106-.34.271-.459,2.061a9.2,9.2,0,0,0,.239,2.4c9.537.794,15.3,4.929,17.7,12.851Z" transform="translate(-21.744 -1.703)"/><path class="e" d="M115.087,41.464a10.786,10.786,0,0,1-8.574-3.865q-3.323-3.865-3.323-11.015T106.513,15.6a11.471,11.471,0,0,1,17.156,0Q127,19.456,127,26.584T123.669,37.6A10.813,10.813,0,0,1,115.087,41.464Zm0-2.8a6.77,6.77,0,0,0,5.967-3.3,15.794,15.794,0,0,0,2.153-8.753,15.631,15.631,0,0,0-2.153-8.721,7.054,7.054,0,0,0-11.933,0,15.679,15.679,0,0,0-2.157,8.721,15.947,15.947,0,0,0,2.157,8.753,6.774,6.774,0,0,0,5.976,3.3Z" transform="translate(-54.692 -4.864)"/><path class="e" d="M167.27,58.057h-3.36v-28h3.36v3.5a9,9,0,0,1,2.015-2.529,7.178,7.178,0,0,1,2.162-1.138,7.862,7.862,0,0,1,2.478-.395,7.67,7.67,0,0,1,4.255,1.258,8.115,8.115,0,0,1,3,3.745,14.09,14.09,0,0,1,1.065,5.595,12.629,12.629,0,0,1-2.231,7.647,7.269,7.269,0,0,1-6.26,3.043,8.014,8.014,0,0,1-2.451-.372,6.164,6.164,0,0,1-2.052-1.1,9.859,9.859,0,0,1-1.978-2.6Zm0-17.9a9.818,9.818,0,0,0,1.5,5.632,4.805,4.805,0,0,0,4.218,2.2,5.173,5.173,0,0,0,4.131-1.951q1.643-1.951,1.643-5.829,0-4.53-1.735-6.293a5.416,5.416,0,0,0-3.961-1.758,5.177,5.177,0,0,0-3,.964,5.751,5.751,0,0,0-2.088,2.869,12.067,12.067,0,0,0-.7,4.158Z" transform="translate(-87.543 -14.472)"/><path class="e" d="M210.241,44.909H213.6v.073a2.754,2.754,0,0,0,.987,2.157,5.084,5.084,0,0,0,3.332.858,5.228,5.228,0,0,0,3.341-1.01,2.974,2.974,0,0,0,1.281-2.382q0-1.836-2.511-2.635l-1.7-.523-1.129-.363-2.295-.721q-3.966-1.464-3.966-4.856a5.586,5.586,0,0,1,1.923-4.186q1.923-1.8,5.71-1.8t5.315,1.542a4.7,4.7,0,0,1,1.579,3.419v.073h-3.415v-.073a1.767,1.767,0,0,0-1.01-1.588,5.411,5.411,0,0,0-2.662-.583,4.847,4.847,0,0,0-3.066.84,2.543,2.543,0,0,0-1.065,2.065,1.9,1.9,0,0,0,.693,1.524,6.453,6.453,0,0,0,2.322,1.056l1.616.459,1.166.344a26.666,26.666,0,0,1,3.043.991,7.568,7.568,0,0,1,1.212.739,3.984,3.984,0,0,1,1.248,1.57,5.311,5.311,0,0,1,.4,2.148,6.38,6.38,0,0,1-2.065,4.8,8.307,8.307,0,0,1-5.967,1.951,10,10,0,0,1-4.131-.739,6.5,6.5,0,0,1-2.607-2.047,4.939,4.939,0,0,1-.968-3.025Z" transform="translate(-112.592 -14.483)"/><path class="e" d="M257.093,41.647H254v-28h3.594l8.688,20.016,8.009-20.016h3.534v28h-3.213V24.955l.041-5h-.073l-1.813,5.021-4.948,12.47h-3.672l-5.4-12.53-1.671-4.562h-.073l.073,4.553Z" transform="translate(-136.284 -5.897)"/><path class="e" d="M317.332,50.883h-3.5l7-10.212-6.582-9.951h3.86L322.8,37.8l4.847-7.077h3.479l-6.614,9.671,6.953,10.5h-3.878l-5.049-7.619Z" transform="translate(-168.654 -15.132)"/></g></svg>